<svg width="29" height="29" viewBox="0 0 29 29" fill="none" xmlns="http://www.w3.org/2000/svg">
<path d="M14.5 14.5C13.1708 14.5 12.033 14.0267 11.0864 13.0802C10.1399 12.1337 9.66665 10.9958 9.66665 9.66668C9.66665 8.33751 10.1399 7.19966 11.0864 6.25314C12.033 5.30661 13.1708 4.83334 14.5 4.83334C15.8291 4.83334 16.967 5.30661 17.9135 6.25314C18.86 7.19966 19.3333 8.33751 19.3333 9.66668C19.3333 10.9958 18.86 12.1337 17.9135 13.0802C16.967 14.0267 15.8291 14.5 14.5 14.5ZM4.83331 24.1667V20.7833C4.83331 20.0986 5.00953 19.4693 5.36196 18.8953C5.71439 18.3214 6.18262 17.8833 6.76665 17.5813C8.01526 16.957 9.28401 16.4887 10.5729 16.1766C11.8618 15.8644 13.1708 15.7083 14.5 15.7083C15.8291 15.7083 17.1382 15.8644 18.4271 16.1766C19.716 16.4887 20.9847 16.957 22.2333 17.5813C22.8173 17.8833 23.2856 18.3214 23.638 18.8953C23.9904 19.4693 24.1666 20.0986 24.1666 20.7833V24.1667H4.83331ZM7.24998 21.75H21.75V20.7833C21.75 20.5618 21.6946 20.3604 21.5838 20.1792C21.4731 19.9979 21.3271 19.857 21.1458 19.7563C20.0583 19.2125 18.9607 18.8047 17.8531 18.5328C16.7455 18.2609 15.6278 18.125 14.5 18.125C13.3722 18.125 12.2545 18.2609 11.1469 18.5328C10.0392 18.8047 8.94165 19.2125 7.85415 19.7563C7.6729 19.857 7.52689 19.9979 7.41613 20.1792C7.30536 20.3604 7.24998 20.5618 7.24998 20.7833V21.75ZM14.5 12.0833C15.1646 12.0833 15.7335 11.8467 16.2068 11.3734C16.68 10.9002 16.9166 10.3313 16.9166 9.66668C16.9166 9.00209 16.68 8.43317 16.2068 7.95991C15.7335 7.48664 15.1646 7.25001 14.5 7.25001C13.8354 7.25001 13.2665 7.48664 12.7932 7.95991C12.3199 8.43317 12.0833 9.00209 12.0833 9.66668C12.0833 10.3313 12.3199 10.9002 12.7932 11.3734C13.2665 11.8467 13.8354 12.0833 14.5 12.0833Z" fill="#9586A8"/>
</svg>
